<?xml version="1.0" encoding="UTF-8" standalone="no"?>
<!-- Created with Inkscape (http://www.inkscape.org/) -->

<svg
   xmlns:dc="http://purl.org/dc/elements/1.1/"
   xmlns:cc="http://creativecommons.org/ns#"
   xmlns:rdf="http://www.w3.org/1999/02/22-rdf-syntax-ns#"
   xmlns:svg="http://www.w3.org/2000/svg"
   xmlns="http://www.w3.org/2000/svg"
   xmlns:xlink="http://www.w3.org/1999/xlink"
   xmlns:sodipodi="http://sodipodi.sourceforge.net/DTD/sodipodi-0.dtd"
   xmlns:inkscape="http://www.inkscape.org/namespaces/inkscape"
   width="1400"
   height="560"
   id="svg2"
   version="1.1"
   inkscape:version="0.48.2 r9819"
   sodipodi:docname="large.svg"
   inkscape:export-filename="/Users/steren/Work/labyrinth/marketing/large-title.png"
   inkscape:export-xdpi="90"
   inkscape:export-ydpi="90">
  <defs
     id="defs4" />
  <sodipodi:namedview
     id="base"
     pagecolor="#8e7763"
     bordercolor="#666666"
     borderopacity="1.0"
     inkscape:pageopacity="1"
     inkscape:pageshadow="2"
     inkscape:zoom="0.70710678"
     inkscape:cx="463.23477"
     inkscape:cy="229.83657"
     inkscape:document-units="px"
     inkscape:current-layer="layer1"
     showgrid="false"
     inkscape:window-width="1676"
     inkscape:window-height="1006"
     inkscape:window-x="4"
     inkscape:window-y="0"
     inkscape:window-maximized="1"
     fit-margin-top="0"
     fit-margin-left="0"
     fit-margin-right="0"
     fit-margin-bottom="0" />
  <metadata
     id="metadata7">
    <rdf:RDF>
      <cc:Work
         rdf:about="">
        <dc:format>image/svg+xml</dc:format>
        <dc:type
           rdf:resource="http://purl.org/dc/dcmitype/StillImage" />
        <dc:title />
      </cc:Work>
    </rdf:RDF>
  </metadata>
  <g
     inkscape:label="Layer 1"
     inkscape:groupmode="layer"
     id="layer1"
     transform="translate(-163.85713,46.7807)"
     style="display:inline">
    <image
       y="-46.280701"
       x="170.35713"
       id="image4102"
       xlink:href="large.png"
       height="559"
       width="1387" />
    <path
       style="font-size:40px;font-style:normal;font-variant:normal;font-weight:normal;font-stretch:normal;text-indent:0;text-align:start;text-decoration:none;line-height:125%;letter-spacing:0px;word-spacing:0px;text-transform:none;direction:ltr;block-progression:tb;writing-mode:lr-tb;text-anchor:start;baseline-shift:baseline;color:#000000;fill:#faf8ef;fill-opacity:1;fill-rule:nonzero;stroke:none;stroke-width:25;marker:none;visibility:visible;display:inline;overflow:visible;enable-background:accumulate;font-family:Sans;-inkscape-font-specification:Helvetica"
       d="m 726.85713,67.7818 0,14.59375 -14.96875,0 0,-7.78125 -10.65625,0 -16.78125,0 0,14.34375 c -16.21534,0.0244 -33.47866,-0.22074 -47.71875,0 l -10.65625,0 -1.25,0 0,-4.65625 0,-16.84375 -20.5,0 -10.59375,0 0,9.78125 0,7.0625 -9.90625,0 -10.59375,0 -77.34375,1.4375 -64.9375,-1.4375 0,-13.9375 -20.5,0 -10.65625,0 -20.5,0 0,13.9375 0,1.25 -137.21875,-0.90625 0,89.375 0,20.5 20.5,0 53.53125,0 17.53125,0 c 3.9108,0.99555 7.87454,1.65625 11.75,1.65625 4.4614,0 8.96947,-0.54457 13.375,-1.65625 l 8.96875,0 10.59375,0 0.96875,0 19.53125,0 0.96875,0 10.65625,0 8.25,0 c 4.10753,1.05702 8.28682,1.65625 12.40625,1.65625 7.50435,0 15.05704,-2.32592 21.78125,-6.09375 l 0,8.5 0,20.5 20.5,0 8.46875,0 c 2.65606,-17.33083 32.38143,-13.96809 39.1875,-31.40625 l 0.125,-0.21875 2.96875,-7.4375 0,14.5 10.65625,0 0,2.46875 1.375,-2.46875 8.46875,0 10.65625,0 17.9375,0 2.5625,0 17.9375,0 10.59375,0 1.25,0 19.25,0 1.25,0 10.65625,0 12.28125,0 8.21875,0 12.28125,0 10.625,0 20.5,0 0,-4.1875 c 7.15796,3.47069 14.74313,4.1875 22.21875,4.1875 l 4,0 6.875,0 13.625,0 6.875,0 3.78125,0 12.3125,0 8.1875,0 12.3125,0 10.59375,0 20.5,0 0,-20.5 0,-38.96875 c -8e-5,-11.79597 -2.47184,-23.68814 -10.40625,-33.28125 -0.0248,-0.03 -0.006,-0.064 -0.0312,-0.0937 l -0.0625,0.0625 c -7.97267,-9.59862 -20.4929,-0.90615 -32.125,-0.90625 -2.15799,25.71816 -1.7073,0.1554 -0.78125,-16.53125 l 0,-16.5 -20.5,0 -10.65625,0 z m -153.625,67.5 0,2.1875 c -0.35936,-0.13628 -0.65821,-0.18966 -1.03125,-0.40625 z m 148.9375,9.0625 c 0.15257,-0.0122 0.53511,0.0751 1.0625,0.25 l -0.375,0 c -0.52571,0 -0.7515,-0.0962 -0.75,-0.1875 5e-4,-0.0271 0.0116,-0.0584 0.0625,-0.0625 z"
       id="text3066"
       inkscape:connector-curvature="0"
       sodipodi:nodetypes="ccccccccccccccccccccccccccccccccsccccccccsccccccccccccccccccccccccccccscccccccccccscccccccccccccccscc" />
    <rect
       style="fill:#faf8ef;fill-opacity:1;stroke:none"
       id="rect4020"
       width="541"
       height="47.035534"
       x="263.35712"
       y="259.18378" />
    <rect
       style="fill:#faf8ef;fill-opacity:1;stroke:none"
       id="rect4024"
       width="54.093666"
       height="62.225399"
       x="263.20563"
       y="245.47174" />
  </g>
  <g
     inkscape:groupmode="layer"
     id="layer2"
     inkscape:label="text"
     style="display:inline"
     transform="translate(0,280)">
    <text
       sodipodi:linespacing="125%"
       id="text3862"
       y="-59.221832"
       x="87.102783"
       style="font-size:65.59707642px;font-style:normal;font-variant:normal;font-weight:normal;font-stretch:normal;line-height:125%;letter-spacing:0px;word-spacing:0px;fill:#8e7763;fill-opacity:1;stroke:none;display:inline;font-family:Sans;-inkscape-font-specification:Helvetica"
       xml:space="preserve"><tspan
         style="font-size:118.07473755px;font-style:normal;font-variant:normal;font-weight:normal;font-stretch:normal;fill:#8e7763;fill-opacity:1;stroke:none;font-family:Sans;-inkscape-font-specification:Helvetica"
         y="-59.221832"
         x="87.102783"
         id="tspan3864"
         sodipodi:role="line">Labyrinth</tspan></text>
    <text
       xml:space="preserve"
       style="font-size:67.70413971px;font-style:normal;font-variant:normal;font-weight:normal;font-stretch:normal;line-height:125%;letter-spacing:0px;word-spacing:0px;fill:#43382f;fill-opacity:1;stroke:none;display:inline;font-family:Sans;-inkscape-font-specification:Helvetica"
       x="91.739586"
       y="69.955284"
       id="text4016"
       sodipodi:linespacing="125%"
       transform="scale(1.0321212,0.96887846)"><tspan
         sodipodi:role="line"
         id="tspan4018"
         x="91.739586"
         y="69.955284"
         style="font-size:67.087883px;font-style:normal;font-variant:normal;font-weight:normal;font-stretch:normal;fill:#43382f;fill-opacity:1;stroke:none;font-family:Sans;-inkscape-font-specification:Helvetica">Maze generator</tspan></text>
  </g>
</svg>
