<?xml version="1.0" encoding="UTF-8" standalone="no"?>
<!-- Created with Inkscape (http://www.inkscape.org/) -->

<svg
   xmlns:dc="http://purl.org/dc/elements/1.1/"
   xmlns:cc="http://creativecommons.org/ns#"
   xmlns:rdf="http://www.w3.org/1999/02/22-rdf-syntax-ns#"
   xmlns:svg="http://www.w3.org/2000/svg"
   xmlns="http://www.w3.org/2000/svg"
   xmlns:xlink="http://www.w3.org/1999/xlink"
   xmlns:sodipodi="http://sodipodi.sourceforge.net/DTD/sodipodi-0.dtd"
   xmlns:inkscape="http://www.inkscape.org/namespaces/inkscape"
   width="440"
   height="280"
   id="svg2"
   version="1.1"
   inkscape:version="0.48.2 r9819"
   sodipodi:docname="small.svg"
   inkscape:export-filename="/Users/steren/Work/labyrinth/marketing/small-title.png"
   inkscape:export-xdpi="90"
   inkscape:export-ydpi="90">
  <defs
     id="defs4" />
  <sodipodi:namedview
     id="base"
     pagecolor="#8e7763"
     bordercolor="#666666"
     borderopacity="1.0"
     inkscape:pageopacity="1"
     inkscape:pageshadow="2"
     inkscape:zoom="2"
     inkscape:cx="290.88819"
     inkscape:cy="92.256214"
     inkscape:document-units="px"
     inkscape:current-layer="layer2"
     showgrid="false"
     inkscape:window-width="1676"
     inkscape:window-height="1006"
     inkscape:window-x="4"
     inkscape:window-y="0"
     inkscape:window-maximized="1"
     fit-margin-top="0"
     fit-margin-left="0"
     fit-margin-right="0"
     fit-margin-bottom="0" />
  <metadata
     id="metadata7">
    <rdf:RDF>
      <cc:Work
         rdf:about="">
        <dc:format>image/svg+xml</dc:format>
        <dc:type
           rdf:resource="http://purl.org/dc/dcmitype/StillImage" />
        <dc:title></dc:title>
      </cc:Work>
    </rdf:RDF>
  </metadata>
  <g
     inkscape:label="Layer 1"
     inkscape:groupmode="layer"
     id="layer1"
     transform="translate(-163.85713,-233.2193)"
     style="display:inline">
    <image
       y="233.2193"
       x="163.85713"
       id="image3063"
       xlink:href="small.png"
       height="276"
       width="438"
       style="fill:#8e7763;fill-opacity:1" />
    <path
       style="font-size:40px;font-style:normal;font-variant:normal;font-weight:normal;font-stretch:normal;text-indent:0;text-align:start;text-decoration:none;line-height:125%;letter-spacing:0px;word-spacing:0px;text-transform:none;direction:ltr;block-progression:tb;writing-mode:lr-tb;text-anchor:start;baseline-shift:baseline;color:#000000;fill:#faf8ef;fill-opacity:1;fill-rule:nonzero;stroke:none;stroke-width:25;marker:none;visibility:visible;display:inline;overflow:visible;enable-background:accumulate;font-family:Sans;-inkscape-font-specification:Helvetica"
       d="m 289.75,330.375 0,8.5 0,6.78125 c -5.20283,-3.43276 -11.49338,-4.90621 -17.59375,-4.90625 -2.99376,6e-5 -5.97247,0.35269 -8.9375,0.96875 l -0.125,0 0,-1.48403 -10.8125,0.10898 -6,1.09375 0,14.5625 0,5.96875 0,8.375 c -0.75752,1.53271 -1.32735,3.12048 -1.78125,4.75 l -10.34375,0 0,-34 0,-12.5 -8.5,0 -7.09375,0 0,10.5 -5.40625,0 -7.09375,0 0,54.5 0,12.5 12.5,0 32.65625,0 10.6875,0 c 2.38474,0.60707 4.79306,1 7.15625,1 2.72049,0 5.46983,-0.32212 8.15625,-1 l 5.46875,0 6.46875,0 0.59375,0 11.90625,0 0.59375,0 6.5,0 5.03125,0 c 2.5047,0.64455 5.05054,1 7.5625,1 4.57603,0 9.18094,-1.42119 13.28125,-3.71875 l 0,5.1875 0,12.5 12.5,0 5.15625,0 c 1.61962,-10.56805 19.75602,-8.52275 23.90625,-19.15625 l 0.0625,-0.125 1.8125,-4.53125 0,8.84375 6.5,0 0,1.5 0.84375,-1.5 5.15625,0 6.5,0 10.9375,0 1.5625,0 10.9375,0 6.46875,0 0.75,0 11.75,0 0.75,0 6.5,0 7.5,0 5,0 7.5,0 6.46875,0 12.5,0 0,-2.5625 c 4.3648,2.11637 9.00399,2.5625 13.5625,2.5625 l 2.4375,0 4.1875,0 8.3125,0 4.1875,0 2.3125,0 7.5,0 5,0 7.5,0 6.46875,0 12.5,0 0,-12.5 0,-23.78125 c -5e-5,-7.19299 -1.50548,-14.43153 -6.34375,-20.28125 -0.0151,-0.0183 -0.0161,-0.0443 -0.0312,-0.0625 L 553.25,349.5 c -4.8616,-5.85308 -12.49815,-0.54245 -19.59121,-0.54251 -1.31591,15.6825 -1.03598,0.0927 -0.47129,-10.08254 l 0,-12.5 -12.5,0 -6.5,0 -12.5,0 0,12.5 0,-1.15625 -9.125,0 0,-7.1875 -6.5,0 -10.24746,0 0,11.1875 c -9.88784,0.0149 -20.41292,-0.1346 -29.09629,0 l -6.5,0 -0.75,0 0,-2.84375 0,-10.26777 -12.5,0 -6.46875,0 0,5.95527 0,4.3125 -6.03125,0 -6.46875,0 0,1.67857 -47.15179,-0.79911 c -1.10877,2.30459 -2.01161,3.53948 -1.94196,1.96429 l -8.46875,0 -6.875,0 -15.5625,0 c -2.1977,-0.58672 -4.42794,-0.96873 -6.65625,-0.96875 -0.0307,0 -0.063,-9e-5 -0.0937,0 l 0,-1.875 0,-8.5 -12.5,0 -6.5,0 -12.5,0 z m 118.25,39.59375 0,1.34375 c -0.21913,-0.0831 -0.39753,-0.11793 -0.625,-0.25 z m 90.78125,5.5625 c 10e-4,-0.066 0.25871,-0.0172 0.6875,0.125 l -0.21875,0 c -0.32057,0 -0.46966,-0.0693 -0.46875,-0.125 z"
       id="text3066"
       inkscape:connector-curvature="0"
       sodipodi:nodetypes="ccccccccccccccccccccccccccsccccccccsccccccccccccccccccccccccccccscccccccccccscccccccccccccccccccccccccccccccccscccccccccccccsc" />
  </g>
  <g
     inkscape:groupmode="layer"
     id="layer2"
     inkscape:label="text"
     style="display:inline">
    <text
       sodipodi:linespacing="125%"
       id="text3862"
       y="160.36328"
       x="47.630863"
       style="font-size:40px;font-style:normal;font-variant:normal;font-weight:normal;font-stretch:normal;line-height:125%;letter-spacing:0px;word-spacing:0px;fill:#8e7763;fill-opacity:1;stroke:none;display:inline;font-family:Sans;-inkscape-font-specification:Helvetica"
       xml:space="preserve"><tspan
         style="font-size:72px;font-style:normal;font-variant:normal;font-weight:normal;font-stretch:normal;fill:#8e7763;fill-opacity:1;stroke:none;font-family:Sans;-inkscape-font-specification:Helvetica"
         y="160.36328"
         x="47.630863"
         id="tspan3864"
         sodipodi:role="line">Labyrinth</tspan></text>
  </g>
</svg>
